<svg width="189" height="189" viewBox="0 0 189 189" fill="none" xmlns="http://www.w3.org/2000/svg">
<rect width="188.56" height="188.56" fill="#3690A4"/>
<path d="M16 94.28C16 51.11 51.11 16 94.28 16C137.44 16 172.56 51.11 172.56 94.28C172.56 137.44 137.45 172.56 94.28 172.56C51.11 172.55 16 137.44 16 94.28ZM169.55 94.28C169.55 52.77 135.78 19 94.27 19C52.76 19 18.99 52.77 18.99 94.28C18.99 135.79 52.76 169.56 94.27 169.56C135.78 169.56 169.55 135.79 169.55 94.28Z" fill="white"/>
<path d="M53.3541 146.623C53.0895 146.389 52.9573 146.064 52.9573 145.647V137.273C52.9573 135.299 53.5677 133.763 54.7988 132.654C56.0299 131.545 57.729 130.985 59.9063 130.985C62.0836 130.985 63.7827 131.545 65.0138 132.654C66.2449 133.763 66.8554 135.31 66.8554 137.273V145.647C66.8554 146.064 66.7231 146.389 66.4586 146.623C66.194 146.857 65.8379 146.979 65.3903 146.979C64.9426 146.979 64.5865 146.857 64.3118 146.613C64.0371 146.369 63.9048 146.043 63.9048 145.647V137.202C63.9048 135.94 63.5589 134.984 62.8874 134.312C62.2057 133.641 61.2086 133.315 59.9063 133.315C58.604 133.315 57.6069 133.651 56.9253 134.312C56.2436 134.984 55.9078 135.94 55.9078 137.202V145.647C55.9078 146.043 55.7756 146.369 55.5008 146.613C55.2261 146.857 54.87 146.979 54.4224 146.979C53.9747 146.979 53.6186 146.857 53.3541 146.623Z" fill="white"/>
<path d="M78.8605 135.686C78.5959 135.452 78.25 135.33 77.8329 135.33C77.4158 135.33 77.0699 135.452 76.7952 135.696C76.5103 135.951 76.3577 136.297 76.3577 136.693V142.34C76.3577 143.052 76.1848 143.571 75.8185 143.927C75.4523 144.283 74.9029 144.456 74.1602 144.456C73.4176 144.456 72.8682 144.273 72.5019 143.927C72.1357 143.571 71.9627 143.052 71.9627 142.34V136.693C71.9627 136.297 71.8101 135.951 71.5253 135.696C71.2506 135.452 70.9047 135.33 70.4875 135.33C70.0704 135.33 69.7245 135.452 69.46 135.686C69.1853 135.93 69.0327 136.286 69.0327 136.693V142.289C69.0327 143.744 69.5007 144.893 70.4265 145.728C71.332 146.552 72.5935 146.969 74.1602 146.969C75.727 146.969 76.9885 146.552 77.894 145.728C78.8198 144.893 79.2878 143.734 79.2878 142.289V136.693C79.2878 136.286 79.1453 135.93 78.8605 135.686Z" fill="white"/>
<path d="M84.7107 145.983C83.6526 145.321 82.8285 144.395 82.2485 143.185C81.6686 141.974 81.3735 140.58 81.3735 138.993C81.3735 137.406 81.6686 135.981 82.2485 134.771C82.8285 133.56 83.6526 132.624 84.7107 131.962C85.7688 131.301 86.9999 130.975 88.3938 130.975C89.5537 130.975 90.6322 131.189 91.6089 131.616C92.5856 132.044 93.3589 132.644 93.9083 133.417C94.0202 133.55 94.0711 133.712 94.0711 133.906C94.0711 134.14 93.9795 134.333 93.7862 134.486C93.6641 134.577 93.5318 134.618 93.3792 134.618C93.1249 134.618 92.901 134.506 92.7281 134.282C92.2906 133.672 91.7106 133.204 90.9679 132.878C90.2252 132.553 89.3604 132.39 88.3938 132.39C87.2746 132.39 86.2979 132.654 85.4738 133.193C84.6497 133.723 84.0189 134.486 83.5814 135.483C83.1439 136.48 82.92 137.65 82.92 138.993C82.92 140.336 83.1439 141.486 83.5814 142.472C84.0189 143.459 84.6598 144.212 85.484 144.751C86.3081 145.291 87.295 145.555 88.4142 145.555C89.4519 145.555 90.3676 145.392 91.1409 145.057C91.9141 144.721 92.5347 144.263 92.9722 143.673C93.1757 143.439 93.3894 143.317 93.6234 143.317C93.7862 143.317 93.9184 143.368 94.0304 143.47C94.2237 143.643 94.3152 143.836 94.3152 144.049C94.3152 144.222 94.2542 144.395 94.1321 144.558C93.5725 145.301 92.7891 145.891 91.7717 146.329C90.7542 146.766 89.6351 146.98 88.4142 146.98C87.0101 146.98 85.7688 146.654 84.7107 145.993V145.983Z" fill="white"/>
<path d="M97.0013 146.023C96.2485 145.382 95.8721 144.507 95.8721 143.377C95.8721 142.248 96.2688 141.383 97.0624 140.732C97.8559 140.081 98.9343 139.756 100.298 139.756C101.091 139.756 101.803 139.878 102.414 140.112C103.024 140.346 103.502 140.671 103.848 141.068V139.644C103.848 138.799 103.594 138.158 103.085 137.711C102.577 137.263 101.834 137.039 100.867 137.039C99.6058 137.039 98.5172 137.365 97.6016 138.016C97.3676 138.169 97.1845 138.24 97.0319 138.24C96.8996 138.24 96.7572 138.179 96.6249 138.067C96.4723 137.935 96.4011 137.762 96.4011 137.558C96.4011 137.334 96.4927 137.151 96.6656 136.999C97.154 136.581 97.7745 136.256 98.5172 136.012C99.2701 135.768 100.033 135.646 100.816 135.646C102.251 135.646 103.36 136.002 104.153 136.714C104.947 137.426 105.344 138.423 105.344 139.715V146.114C105.344 146.694 105.1 146.979 104.611 146.979C104.398 146.979 104.214 146.898 104.082 146.745C103.95 146.592 103.879 146.389 103.879 146.135V145.331C103.044 146.43 101.783 146.979 100.104 146.979C98.7817 146.979 97.744 146.664 96.9912 146.023H97.0013ZM102.872 144.965C103.533 144.527 103.869 143.957 103.869 143.266C103.869 142.574 103.563 142.035 102.943 141.658C102.332 141.282 101.457 141.088 100.338 141.088C99.3922 141.088 98.6597 141.282 98.151 141.678C97.6321 142.075 97.3778 142.635 97.3778 143.377C97.3778 144.12 97.6321 144.659 98.1306 145.046C98.6291 145.433 99.3515 145.626 100.298 145.626C101.356 145.626 102.21 145.412 102.872 144.975V144.965Z" fill="white"/>
<path d="M108.305 146.745C108.173 146.592 108.112 146.369 108.112 146.094V140.275C108.112 139.4 108.376 138.545 108.875 137.863C108.936 137.782 108.997 137.721 109.048 137.66C110.248 136.327 111.764 135.869 113.392 135.869H113.901C114.155 135.869 114.358 135.93 114.511 136.063C114.664 136.185 114.735 136.358 114.735 136.581C114.735 136.805 114.664 136.978 114.511 137.09C114.358 137.212 114.155 137.263 113.901 137.263H113.331C112.181 137.263 111.113 137.68 110.442 138.403C109.77 139.125 109.597 140.03 109.597 141.261V146.084C109.597 146.348 109.536 146.562 109.404 146.725C109.272 146.887 109.088 146.969 108.844 146.969C108.61 146.969 108.437 146.887 108.305 146.735V146.745Z" fill="white"/>
<path d="M116.77 145.483C115.855 144.486 115.397 143.082 115.397 141.261C115.397 139.44 115.865 138.138 116.791 137.141C117.716 136.144 118.998 135.646 120.606 135.646C121.603 135.646 122.488 135.829 123.261 136.195C124.034 136.561 124.645 137.07 125.072 137.731C125.509 138.392 125.723 139.145 125.723 139.99C125.723 140.61 125.57 141.088 125.265 141.434C124.96 141.78 124.543 141.943 124.014 141.943H116.841C116.841 143.082 117.177 143.978 117.849 144.619C118.52 145.26 119.456 145.585 120.657 145.585C121.389 145.585 122.03 145.494 122.559 145.31C123.088 145.127 123.587 144.822 124.055 144.415C124.299 144.181 124.502 144.059 124.655 144.059C124.767 144.059 124.879 144.12 124.98 144.232C125.163 144.405 125.255 144.598 125.255 144.792C125.255 144.944 125.174 145.107 125.021 145.28C124.492 145.86 123.871 146.287 123.159 146.572C122.447 146.857 121.613 146.989 120.657 146.989C118.978 146.989 117.676 146.491 116.76 145.504L116.77 145.483ZM123.597 140.62C123.831 140.62 124.004 140.57 124.116 140.458C124.227 140.346 124.288 140.142 124.288 139.847C124.288 139.318 124.136 138.83 123.821 138.403C123.515 137.975 123.078 137.64 122.508 137.406C121.949 137.172 121.308 137.049 120.595 137.049C119.446 137.049 118.54 137.375 117.869 138.016C117.208 138.657 116.872 139.532 116.872 140.631H123.576L123.597 140.62Z" fill="white"/>
<path d="M129.101 146.389C128.267 145.992 127.596 145.453 127.118 144.751C127.026 144.598 126.975 144.456 126.975 144.303C126.975 144.151 127.016 144.029 127.087 143.917C127.158 143.805 127.26 143.723 127.382 143.662C127.494 143.622 127.575 143.591 127.647 143.591C127.769 143.591 127.87 143.622 127.962 143.693C128.053 143.764 128.155 143.866 128.277 144.018C129.152 145.036 130.322 145.555 131.787 145.555C132.489 145.555 133.059 145.422 133.486 145.158C133.924 144.893 134.137 144.517 134.137 144.049C134.137 143.713 134.056 143.428 133.883 143.215C133.71 143.001 133.425 142.798 133.028 142.614C132.632 142.431 131.981 142.167 131.075 141.821C130.2 141.495 129.508 141.18 129.01 140.885C128.511 140.59 128.135 140.254 127.891 139.878C127.647 139.501 127.524 139.033 127.524 138.494C127.524 137.64 127.87 136.948 128.552 136.429C129.234 135.91 130.149 135.656 131.279 135.656C132.113 135.656 132.896 135.818 133.608 136.134C134.32 136.449 134.87 136.877 135.236 137.416C135.348 137.578 135.399 137.731 135.399 137.884C135.399 138.108 135.287 138.28 135.073 138.413C134.941 138.504 134.799 138.545 134.666 138.545C134.432 138.545 134.219 138.433 134.015 138.209C133.659 137.823 133.283 137.538 132.855 137.355C132.438 137.172 131.899 137.08 131.248 137.08C130.536 137.08 129.986 137.202 129.6 137.456C129.223 137.711 129.03 138.067 129.03 138.525C129.03 138.871 129.112 139.135 129.264 139.339C129.417 139.542 129.671 139.715 130.017 139.868C130.363 140.02 130.963 140.254 131.828 140.57C132.805 140.926 133.557 141.261 134.086 141.577C134.616 141.892 135.002 142.248 135.246 142.635C135.48 143.021 135.602 143.489 135.602 144.059C135.602 144.944 135.246 145.656 134.534 146.196C133.822 146.725 132.896 146.999 131.767 146.999C130.821 146.999 129.925 146.806 129.091 146.409L129.101 146.389Z" fill="white"/>
<path d="M135.613 78.6084C135.613 75.6985 135.166 72.8294 134.27 70.0925C134.219 69.9297 134.138 69.7669 134.057 69.6245C134.057 69.4515 134.067 69.2785 134.067 69.1056C134.067 53.9357 121.725 41.5841 106.545 41.5841H80.4685C65.2986 41.5841 52.947 53.9255 52.947 69.1056V107.249C52.947 115.765 59.8757 122.704 68.4018 122.704H87.3768C88.7097 122.704 89.7882 121.625 89.7882 120.292C89.7882 118.96 88.7097 117.881 87.3768 117.881H68.4018C64.8815 117.881 61.758 116.152 59.8248 113.506C61.2187 109.121 65.2579 106.13 69.9483 106.13H103.167V107.259C103.167 115.775 110.096 122.714 118.622 122.714C127.148 122.714 134.077 115.785 134.077 107.259V88.2841C134.077 88.1315 134.057 87.9687 134.026 87.8263C135.054 84.947 135.613 81.8438 135.613 78.6185V78.6084ZM108.092 101.307H107.99V96.5965C117.564 96.098 125.846 90.6853 130.384 82.8409C128.4 93.3408 119.161 101.307 108.092 101.307ZM106.545 46.4169C119.06 46.4169 129.244 56.6014 129.244 69.1158C129.244 81.6301 119.833 91.0108 107.99 91.7637V69.1158C107.99 59.7045 103.239 51.382 96.0148 46.4169H106.545ZM80.4685 46.4169C92.9829 46.4169 103.167 56.6014 103.167 69.1158V91.8146H68.4018C64.2812 91.8146 60.5472 93.4425 57.7798 96.0776V69.1158C57.7798 56.6014 67.9643 46.4169 80.4787 46.4169H80.4685ZM71.5456 101.307H69.9483C65.0443 101.307 60.6286 103.566 57.7798 107.208C57.8002 101.368 62.5617 96.6271 68.4018 96.6271H103.167V101.297H71.5456V101.307ZM129.244 107.259C129.244 113.12 124.482 117.881 118.622 117.881C112.762 117.881 108 113.12 108 107.259V106.13H108.102C116.597 106.13 124.198 102.264 129.254 96.1896V107.249L129.244 107.259Z" fill="white"/>
</svg>
